<svg xmlns="http://www.w3.org/2000/svg" width="128" height="128" viewBox="0 0 128 128">
  <defs>
    <linearGradient id="bg" x1="0" y1="0" x2="1" y2="1">
      <stop offset="0" stop-color="#2b3445"/>
      <stop offset="1" stop-color="#121722"/>
    </linearGradient>
  </defs>
  <rect x="8" y="8" width="112" height="112" rx="26" fill="url(#bg)"/>
  <rect x="8" y="8" width="112" height="112" rx="26" fill="none" stroke="#fff" stroke-opacity=".08" stroke-width="1.5"/>
  <!-- two chambers joined by a neck: the bottleneck, lit -->
  <path d="M20 36 h34 a6 6 0 0 1 6 6 v8 h8 v-8 a6 6 0 0 1 6 -6 h34 a6 6 0 0 1 6 6 v44 a6 6 0 0 1 -6 6 h-34 a6 6 0 0 1 -6 -6 v-8 h-8 v8 a6 6 0 0 1 -6 6 h-34 a6 6 0 0 1 -6 -6 v-44 a6 6 0 0 1 6 -6 z" fill="#fff" fill-opacity=".06" stroke="#fff" stroke-opacity=".45" stroke-width="3" stroke-linejoin="round"/>
  <rect x="60" y="50" width="8" height="28" fill="#ef4444" fill-opacity=".35"/>
  <g stroke="#ef4444" stroke-width="4" stroke-linecap="round">
    <line x1="60" y1="50" x2="68" y2="50"/>
    <line x1="60" y1="78" x2="68" y2="78"/>
  </g>
  <!-- items: crowded before the neck, sparse after -->
  <g fill="#eef2f8">
    <circle cx="26" cy="52" r="4"/><circle cx="26" cy="64" r="4"/><circle cx="26" cy="76" r="4"/>
    <circle cx="36" cy="46" r="4"/><circle cx="36" cy="58" r="4"/><circle cx="36" cy="70" r="4"/><circle cx="36" cy="82" r="4"/>
    <circle cx="46" cy="52" r="4"/><circle cx="46" cy="64" r="4"/><circle cx="46" cy="76" r="4"/>
    <circle cx="54" cy="58" r="4"/><circle cx="54" cy="70" r="4"/>
    <circle cx="64" cy="64" r="4"/>
    <circle cx="82" cy="64" r="4"/>
    <circle cx="100" cy="62" r="4"/>
  </g>
</svg>
